<svg xmlns="http://www.w3.org/2000/svg" viewBox="0 0 900 580" font-family="-apple-system, BlinkMacSystemFont, 'Segoe UI', Helvetica, Arial, sans-serif">

  <!-- Background -->
  <rect width="900" height="580" fill="#f8fafc" rx="16"/>

  <!-- Title -->
  <text x="450" y="36" text-anchor="middle" font-size="17" font-weight="700" fill="#0f172a">⚡ Bifrost — System Architecture</text>

  <!-- ── EXTERNAL SERVICES ───────────────────────────────────── -->
  <rect x="20" y="52" width="860" height="88" fill="#fff7ed" stroke="#fdba74" stroke-width="1.5" rx="10"/>
  <text x="34" y="70" font-size="10" font-weight="700" fill="#c2410c" letter-spacing="1">EXTERNAL SERVICES</text>

  <!-- Anthropic -->
  <rect x="34" y="76" width="170" height="52" fill="#ffffff" stroke="#fdba74" stroke-width="1" rx="8"/>
  <text x="119" y="97" text-anchor="middle" font-size="12" font-weight="600" fill="#1e293b">Anthropic API</text>
  <text x="119" y="115" text-anchor="middle" font-size="10" fill="#64748b">Claude Sonnet 4.6</text>

  <!-- Groq -->
  <rect x="218" y="76" width="148" height="52" fill="#ffffff" stroke="#fdba74" stroke-width="1" rx="8"/>
  <text x="292" y="97" text-anchor="middle" font-size="12" font-weight="600" fill="#1e293b">Groq API</text>
  <text x="292" y="115" text-anchor="middle" font-size="10" fill="#64748b">llama-3.3-70b</text>

  <!-- Neon -->
  <rect x="380" y="76" width="180" height="52" fill="#ffffff" stroke="#fdba74" stroke-width="1" rx="8"/>
  <text x="470" y="97" text-anchor="middle" font-size="12" font-weight="600" fill="#1e293b">Neon PostgreSQL</text>
  <text x="470" y="115" text-anchor="middle" font-size="10" fill="#64748b">serverless + PgBouncer</text>

  <!-- LangSmith -->
  <rect x="574" y="76" width="148" height="52" fill="#ffffff" stroke="#fdba74" stroke-width="1" rx="8"/>
  <text x="648" y="97" text-anchor="middle" font-size="12" font-weight="600" fill="#1e293b">LangSmith</text>
  <text x="648" y="115" text-anchor="middle" font-size="10" fill="#64748b">agent tracing</text>

  <!-- Vercel -->
  <rect x="736" y="76" width="130" height="52" fill="#ffffff" stroke="#fdba74" stroke-width="1" rx="8"/>
  <text x="801" y="97" text-anchor="middle" font-size="12" font-weight="600" fill="#1e293b">Vercel</text>
  <text x="801" y="115" text-anchor="middle" font-size="10" fill="#64748b">edge deployment</text>

  <!-- connector -->
  <line x1="450" y1="140" x2="450" y2="158" stroke="#cbd5e1" stroke-width="1.5" stroke-dasharray="4,3"/>

  <!-- ── SHARED PACKAGES ────────────────────────────────────── -->
  <rect x="20" y="158" width="860" height="88" fill="#eef2ff" stroke="#a5b4fc" stroke-width="1.5" rx="10"/>
  <text x="34" y="176" font-size="10" font-weight="700" fill="#4338ca" letter-spacing="1">SHARED PACKAGES</text>

  <!-- core -->
  <rect x="34" y="182" width="260" height="52" fill="#ffffff" stroke="#a5b4fc" stroke-width="1" rx="8"/>
  <text x="164" y="203" text-anchor="middle" font-size="12" font-weight="600" fill="#1e293b">packages/core</text>
  <text x="164" y="221" text-anchor="middle" font-size="10" fill="#64748b">Pydantic settings · logging · types</text>

  <!-- llm -->
  <rect x="314" y="182" width="260" height="52" fill="#ffffff" stroke="#a5b4fc" stroke-width="1" rx="8"/>
  <text x="444" y="203" text-anchor="middle" font-size="12" font-weight="600" fill="#1e293b">packages/llm</text>
  <text x="444" y="221" text-anchor="middle" font-size="10" fill="#64748b">Anthropic client · streaming · caching</text>

  <!-- tools -->
  <rect x="594" y="182" width="272" height="52" fill="#ffffff" stroke="#a5b4fc" stroke-width="1" rx="8"/>
  <text x="730" y="203" text-anchor="middle" font-size="12" font-weight="600" fill="#1e293b">packages/tools</text>
  <text x="730" y="221" text-anchor="middle" font-size="10" fill="#64748b">web_search · file_ops · memory</text>

  <!-- connector -->
  <line x1="450" y1="246" x2="450" y2="264" stroke="#cbd5e1" stroke-width="1.5" stroke-dasharray="4,3"/>

  <!-- ── THREE COLUMNS ──────────────────────────────────────── -->

  <!-- Apps -->
  <rect x="20" y="264" width="272" height="190" fill="#eff6ff" stroke="#93c5fd" stroke-width="1.5" rx="10"/>
  <text x="34" y="282" font-size="10" font-weight="700" fill="#1d4ed8" letter-spacing="1">APPS — Vercel</text>

  <rect x="34" y="288" width="244" height="44" fill="#ffffff" stroke="#93c5fd" stroke-width="1" rx="7"/>
  <text x="156" y="306" text-anchor="middle" font-size="12" font-weight="600" fill="#1e293b">hello-api</text>
  <text x="156" y="322" text-anchor="middle" font-size="10" fill="#64748b">quotes · UUID · landing page</text>

  <rect x="34" y="340" width="244" height="44" fill="#ffffff" stroke="#93c5fd" stroke-width="1" rx="7"/>
  <text x="156" y="358" text-anchor="middle" font-size="12" font-weight="600" fill="#1e293b">notes-api</text>
  <text x="156" y="374" text-anchor="middle" font-size="10" fill="#64748b">CRUD · Neon PostgreSQL</text>

  <rect x="34" y="392" width="244" height="44" fill="#ffffff" stroke="#93c5fd" stroke-width="1" rx="7"/>
  <text x="156" y="410" text-anchor="middle" font-size="12" font-weight="600" fill="#1e293b">code-reviewer</text>
  <text x="156" y="426" text-anchor="middle" font-size="10" fill="#64748b">Groq · structured JSON review</text>

  <!-- APIs -->
  <rect x="308" y="264" width="272" height="190" fill="#f0fdf4" stroke="#86efac" stroke-width="1.5" rx="10"/>
  <text x="322" y="282" font-size="10" font-weight="700" fill="#15803d" letter-spacing="1">APIS — Docker</text>

  <rect x="322" y="288" width="244" height="44" fill="#ffffff" stroke="#86efac" stroke-width="1" rx="7"/>
  <text x="444" y="306" text-anchor="middle" font-size="12" font-weight="600" fill="#1e293b">apis/gateway</text>
  <text x="444" y="322" text-anchor="middle" font-size="10" fill="#64748b">async streaming chat · FastAPI</text>

  <rect x="322" y="340" width="244" height="44" fill="#ffffff" stroke="#86efac" stroke-width="1" rx="7"/>
  <text x="444" y="358" text-anchor="middle" font-size="12" font-weight="600" fill="#1e293b">apis/webhooks</text>
  <text x="444" y="374" text-anchor="middle" font-size="10" fill="#64748b">event receiver · FastAPI</text>

  <!-- Agents -->
  <rect x="596" y="264" width="284" height="190" fill="#fdf4ff" stroke="#d8b4fe" stroke-width="1.5" rx="10"/>
  <text x="610" y="282" font-size="10" font-weight="700" fill="#7e22ce" letter-spacing="1">AGENTS — Docker / LangGraph</text>

  <rect x="610" y="288" width="256" height="44" fill="#ffffff" stroke="#d8b4fe" stroke-width="1" rx="7"/>
  <text x="738" y="306" text-anchor="middle" font-size="12" font-weight="600" fill="#1e293b">research-agent</text>
  <text x="738" y="322" text-anchor="middle" font-size="10" fill="#64748b">researcher → synthesizer</text>

  <rect x="610" y="340" width="256" height="44" fill="#ffffff" stroke="#d8b4fe" stroke-width="1" rx="7"/>
  <text x="738" y="358" text-anchor="middle" font-size="12" font-weight="600" fill="#1e293b">coding-agent</text>
  <text x="738" y="374" text-anchor="middle" font-size="10" fill="#64748b">coder → reviewer</text>

  <!-- connector -->
  <line x1="450" y1="454" x2="450" y2="472" stroke="#cbd5e1" stroke-width="1.5" stroke-dasharray="4,3"/>

  <!-- ── MCP SERVERS ────────────────────────────────────────── -->
  <rect x="20" y="472" width="860" height="88" fill="#f0fdfa" stroke="#5eead4" stroke-width="1.5" rx="10"/>
  <text x="34" y="490" font-size="10" font-weight="700" fill="#0f766e" letter-spacing="1">MCP SERVERS — stdio (FastMCP)</text>

  <!-- knowledge-base -->
  <rect x="34" y="496" width="400" height="52" fill="#ffffff" stroke="#5eead4" stroke-width="1" rx="8"/>
  <text x="234" y="517" text-anchor="middle" font-size="12" font-weight="600" fill="#1e293b">knowledge-base</text>
  <text x="234" y="535" text-anchor="middle" font-size="10" fill="#64748b">search tool · kb://status resource</text>

  <!-- code-runner -->
  <rect x="452" y="496" width="414" height="52" fill="#ffffff" stroke="#5eead4" stroke-width="1" rx="8"/>
  <text x="659" y="517" text-anchor="middle" font-size="12" font-weight="600" fill="#1e293b">code-runner</text>
  <text x="659" y="535" text-anchor="middle" font-size="10" fill="#64748b">executes Python snippets in subprocess</text>

</svg>
